# xmcd CD database file
#
# Track frame offsets:
#	150
#	9952
#	22172
#	31745
#	41233
#	56404
#	67736
#	82955
#	101469
#	114697
#	126355
#	138842
#	151460
#	160259
#	171576
#	189743
#	205221
#
# Disc length: 2886 seconds
#
# Revision: 0
# Processed by: cddbd v1.5.1PL2 Copyright (c) Steve Scherf et al.
# Submitted via: Feurio! 1.68 - http://www.feurio.com
#
DISCID=e20b4411
DTITLE=Frogs For Snakes - -
DYEAR=1900
DGENRE=
TTITLE0=Ain't Got You
TTITLE1=I Ain't Superstitious
TTITLE2=Diddy Wah Diddy
TTITLE3=T-Bone Shuffle
TTITLE4=One Way Out
TTITLE5=Hush Oh Hush
TTITLE6=Scratch My Back
TTITLE7=Good Thing
TTITLE8=Love In Vain
TTITLE9=I Got Loaded
TTITLE10=Drunk
TTITLE11=I Wish You Would
TTITLE12=Rub A Dub
TTITLE13=Too Close Together
TTITLE14=I Don't Know
TTITLE15=Money Woman
TTITLE16=I Want To
EXTD=
EXTT0=
EXTT1=
EXTT2=
EXTT3=
EXTT4=
EXTT5=
EXTT6=
EXTT7=
EXTT8=
EXTT9=
EXTT10=
EXTT11=
EXTT12=
EXTT13=
EXTT14=
EXTT15=
EXTT16=
PLAYORDER=
